HIERARCHY
ROOT Hips
{
	OFFSET 0.000000 83.214638 0.000000
	CHANNELS 6 Xposition Yposition Zposition Xrotation Yrotation Zrotation
	JOINT Pelvis
	{
		OFFSET 0.000000 0.000000 0.000000
		CHANNELS 3 Xrotation Yrotation Zrotation
		JOINT LeftUpLeg
		{
			OFFSET 8.479700 -4.795502 -0.379100
			CHANNELS 3 Xrotation Yrotation Zrotation
			JOINT LeftLeg
			{
				OFFSET 0.024144 -32.555107 0.112900
				CHANNELS 3 Xrotation Yrotation Zrotation
				JOINT LeftFoot
				{
					OFFSET -0.024144 -32.638630 -3.012600
					CHANNELS 3 Xrotation Yrotation Zrotation
					JOINT LeftToeBase
					{
						OFFSET 0.970200 -13.225400 11.864200
						CHANNELS 3 Xrotation Yrotation Zrotation
						End Site
						{
							OFFSET 0.000000 12.319262 0.000000
						}
					}
					JOINT LFootTongue
					{
						OFFSET 1.142400 -1.059800 6.665200
						CHANNELS 3 Xrotation Yrotation Zrotation
						End Site
						{
							OFFSET 0.000000 12.319262 0.000000
						}
					}
				}
				JOINT LeftPantLeg
				{
					OFFSET 0.918482 -16.533964 -2.284700
					CHANNELS 3 Xrotation Yrotation Zrotation
					End Site
					{
						OFFSET 0.350399 24.744368 0.000000
					}
				}
			}
		}
		JOINT RightUpLeg
		{
			OFFSET -8.479700 -4.795502 -0.379100
			CHANNELS 3 Xrotation Yrotation Zrotation
			JOINT RightLeg
			{
				OFFSET -0.023144 -32.555092 0.112900
				CHANNELS 3 Xrotation Yrotation Zrotation
				JOINT RightFoot
				{
					OFFSET 0.023144 -32.638641 -3.012700
					CHANNELS 3 Xrotation Yrotation Zrotation
					JOINT RightToeBase
					{
						OFFSET -0.970200 -13.225400 11.864200
						CHANNELS 3 Xrotation Yrotation Zrotation
						End Site
						{
							OFFSET 0.000000 12.319244 0.000000
						}
					}
					JOINT RFootTongue
					{
						OFFSET -1.142200 -1.059800 6.665200
						CHANNELS 3 Xrotation Yrotation Zrotation
						End Site
						{
							OFFSET 0.000000 12.319243 0.000000
						}
					}
				}
				JOINT RightPantLeg
				{
					OFFSET -0.919482 -16.533978 -2.284800
					CHANNELS 3 Xrotation Yrotation Zrotation
					End Site
					{
						OFFSET -0.350400 24.744419 0.000000
					}
				}
			}
		}
	}
	JOINT Spine
	{
		OFFSET 0.000000 7.722000 1.166200
		CHANNELS 3 Xrotation Yrotation Zrotation
		JOINT Spine1
		{
			OFFSET 0.000000 12.024101 0.248800
			CHANNELS 3 Xrotation Yrotation Zrotation
			JOINT Spine2
			{
				OFFSET 0.000000 11.502998 -0.491200
				CHANNELS 3 Xrotation Yrotation Zrotation
				JOINT Neck
				{
					OFFSET 0.000000 18.430702 -3.123100
					CHANNELS 3 Xrotation Yrotation Zrotation
					JOINT Head
					{
						OFFSET 0.000000 9.051102 1.034000
						CHANNELS 3 Xrotation Yrotation Zrotation
						JOINT HairB
						{
							OFFSET 0.208400 24.786102 24.822300
							CHANNELS 3 Xrotation Yrotation Zrotation
							End Site
							{
								OFFSET 0.000000 32.263779 0.000000
							}
						}
						JOINT HairA
						{
							OFFSET -7.081100 24.428299 23.196600
							CHANNELS 3 Xrotation Yrotation Zrotation
							End Site
							{
								OFFSET 0.000000 32.263779 0.000000
							}
						}
						JOINT Hat
						{
							OFFSET 16.728800 15.048294 -15.439601
							CHANNELS 3 Xrotation Yrotation Zrotation
							End Site
							{
								OFFSET 0.000000 32.263779 0.000000
							}
						}
					}
				}
				JOINT LeftShoulder
				{
					OFFSET 6.197800 13.665199 -4.064700
					CHANNELS 3 Xrotation Yrotation Zrotation
					JOINT LeftArm
					{
						OFFSET 7.778100 -0.187103 -1.709300
						CHANNELS 3 Xrotation Yrotation Zrotation
						JOINT LeftForeArm
						{
							OFFSET 22.049376 0.000000 0.000000
							CHANNELS 3 Xrotation Yrotation Zrotation
							JOINT LeftHand
							{
								OFFSET 23.009392 0.000000 0.000000
								CHANNELS 3 Xrotation Yrotation Zrotation
								JOINT LeftHandThumb1
								{
									OFFSET 3.507191 -2.063065 3.133727
									CHANNELS 3 Xrotation Yrotation Zrotation
									JOINT LeftHandThumb2
									{
										OFFSET 3.101337 -1.790558 1.790558
										CHANNELS 3 Xrotation Yrotation Zrotation
										JOINT LeftHandThumb3
										{
											OFFSET 3.058640 -1.765907 1.765906
											CHANNELS 3 Xrotation Yrotation Zrotation
											End Site
											{
												OFFSET -0.415260 3.926476 -0.049563
											}
										}
									}
								}
								JOINT LeftHandIndex1
								{
									OFFSET 11.334419 -0.901459 3.706815
									CHANNELS 3 Xrotation Yrotation Zrotation
									JOINT LeftHandIndex2
									{
										OFFSET 3.283112 0.000000 0.000000
										CHANNELS 3 Xrotation Yrotation Zrotation
										JOINT LeftHandIndex3
										{
											OFFSET 3.323853 0.000000 0.000000
											CHANNELS 3 Xrotation Yrotation Zrotation
											End Site
											{
												OFFSET -1.135597 3.097809 0.402452
											}
										}
									}
								}
								JOINT LeftHandMiddle1
								{
									OFFSET 11.335861 0.000000 0.000000
									CHANNELS 3 Xrotation Yrotation Zrotation
									JOINT LeftHandMiddle2
									{
										OFFSET 3.410492 0.000000 0.000000
										CHANNELS 3 Xrotation Yrotation Zrotation
										JOINT LeftHandMiddle3
										{
											OFFSET 3.312172 0.000000 0.000000
											CHANNELS 3 Xrotation Yrotation Zrotation
											End Site
											{
												OFFSET -1.150200 3.080154 0.400270
											}
										}
									}
								}
								JOINT LeftHandRing1
								{
									OFFSET 11.514786 -0.013176 -3.003090
									CHANNELS 3 Xrotation Yrotation Zrotation
									JOINT LeftHandRing2
									{
										OFFSET 3.053307 0.000000 0.000000
										CHANNELS 3 Xrotation Yrotation Zrotation
										JOINT LeftHandRing3
										{
											OFFSET 3.295807 0.000000 0.000000
											CHANNELS 3 Xrotation Yrotation Zrotation
											End Site
											{
												OFFSET -1.281006 3.013344 0.375733
											}
										}
									}
								}
								JOINT LeftHandPinky1
								{
									OFFSET 10.518692 -0.960396 -5.730441
									CHANNELS 3 Xrotation Yrotation Zrotation
									JOINT LeftHandPinky2
									{
										OFFSET 2.861649 0.000000 0.000000
										CHANNELS 3 Xrotation Yrotation Zrotation
										JOINT LeftHandPinky3
										{
											OFFSET 2.863380 0.000000 0.000000
											CHANNELS 3 Xrotation Yrotation Zrotation
											End Site
											{
												OFFSET -0.843597 2.711159 0.369971
											}
										}
									}
								}
							}
							JOINT LSleeve
							{
								OFFSET 6.676277 -0.344902 -1.011730
								CHANNELS 3 Xrotation Yrotation Zrotation
								End Site
								{
									OFFSET 0.000000 14.885353 0.000000
								}
							}
						}
					}
				}
				JOINT RightShoulder
				{
					OFFSET -6.197800 13.665199 -4.064700
					CHANNELS 3 Xrotation Yrotation Zrotation
					JOINT RightArm
					{
						OFFSET -7.778100 -0.187103 -1.709300
						CHANNELS 3 Xrotation Yrotation Zrotation
						JOINT RightForeArm
						{
							OFFSET -22.049376 0.000000 0.000000
							CHANNELS 3 Xrotation Yrotation Zrotation
							JOINT RightHand
							{
								OFFSET -23.009392 0.000000 0.000000
								CHANNELS 3 Xrotation Yrotation Zrotation
								JOINT RightHandThumb1
								{
									OFFSET -3.507191 -2.063065 3.133727
									CHANNELS 3 Xrotation Yrotation Zrotation
									JOINT RightHandThumb2
									{
										OFFSET -3.101337 -1.790558 1.790558
										CHANNELS 3 Xrotation Yrotation Zrotation
										JOINT RightHandThumb3
										{
											OFFSET -3.058640 -1.765907 1.765906
											CHANNELS 3 Xrotation Yrotation Zrotation
											End Site
											{
												OFFSET 0.415260 3.926476 -0.049563
											}
										}
									}
								}
								JOINT RightHandIndex1
								{
									OFFSET -11.334419 -0.901459 3.706815
									CHANNELS 3 Xrotation Yrotation Zrotation
									JOINT RightHandIndex2
									{
										OFFSET -3.283112 0.000000 0.000000
										CHANNELS 3 Xrotation Yrotation Zrotation
										JOINT RightHandIndex3
										{
											OFFSET -3.323853 0.000000 0.000000
											CHANNELS 3 Xrotation Yrotation Zrotation
											End Site
											{
												OFFSET 1.135597 3.097809 0.402452
											}
										}
									}
								}
								JOINT RightHandMiddle1
								{
									OFFSET -11.335861 0.000000 0.000000
									CHANNELS 3 Xrotation Yrotation Zrotation
									JOINT RightHandMiddle2
									{
										OFFSET -3.410492 0.000000 0.000000
										CHANNELS 3 Xrotation Yrotation Zrotation
										JOINT RightHandMiddle3
										{
											OFFSET -3.312172 0.000000 0.000000
											CHANNELS 3 Xrotation Yrotation Zrotation
											End Site
											{
												OFFSET 1.150200 3.080154 0.400270
											}
										}
									}
								}
								JOINT RightHandRing1
								{
									OFFSET -11.514786 -0.013176 -3.003090
									CHANNELS 3 Xrotation Yrotation Zrotation
									JOINT RightHandRing2
									{
										OFFSET -3.053307 0.000000 0.000000
										CHANNELS 3 Xrotation Yrotation Zrotation
										JOINT RightHandRing3
										{
											OFFSET -3.295807 0.000000 0.000000
											CHANNELS 3 Xrotation Yrotation Zrotation
											End Site
											{
												OFFSET 1.281006 3.013344 0.375733
											}
										}
									}
								}
								JOINT RightHandPinky1
								{
									OFFSET -10.518692 -0.960396 -5.730441
									CHANNELS 3 Xrotation Yrotation Zrotation
									JOINT RightHandPinky2
									{
										OFFSET -2.861649 0.000000 0.000000
										CHANNELS 3 Xrotation Yrotation Zrotation
										JOINT RightHandPinky3
										{
											OFFSET -2.863380 0.000000 0.000000
											CHANNELS 3 Xrotation Yrotation Zrotation
											End Site
											{
												OFFSET 0.843597 2.711159 0.369971
											}
										}
									}
								}
							}
							JOINT RSleeve
							{
								OFFSET -6.676277 -0.344902 -1.011730
								CHANNELS 3 Xrotation Yrotation Zrotation
								End Site
								{
									OFFSET 0.000000 14.885353 0.000000
								}
							}
						}
					}
				}
				JOINT Backpack
				{
					OFFSET 0.000000 -2.471497 36.677502
					CHANNELS 3 Xrotation Yrotation Zrotation
					End Site
					{
						OFFSET 0.000000 20.427315 0.000000
					}
				}
				JOINT Hood
				{
					OFFSET 0.000000 18.754097 -10.431000
					CHANNELS 3 Xrotation Yrotation Zrotation
					JOINT Hood1
					{
						OFFSET 0.000000 -5.011002 -7.685901
						CHANNELS 3 Xrotation Yrotation Zrotation
						End Site
						{
							OFFSET 0.000000 9.175140 0.000000
						}
					}
				}
				JOINT LHoodieString
				{
					OFFSET 5.250500 16.397697 3.089900
					CHANNELS 3 Xrotation Yrotation Zrotation
					JOINT LHoodieString1
					{
						OFFSET 0.257700 -6.364304 3.694600
						CHANNELS 3 Xrotation Yrotation Zrotation
						JOINT LHoodieString2
						{
							OFFSET 0.000000 -9.643799 2.679100
							CHANNELS 3 Xrotation Yrotation Zrotation
							End Site
							{
								OFFSET 0.000000 10.009018 0.000000
							}
						}
					}
				}
				JOINT RHoodieString
				{
					OFFSET -5.250500 16.397697 3.089900
					CHANNELS 3 Xrotation Yrotation Zrotation
					JOINT RHoodieString1
					{
						OFFSET -0.257700 -6.364304 3.694600
						CHANNELS 3 Xrotation Yrotation Zrotation
						JOINT RHoodieString2
						{
							OFFSET 0.000000 -9.643799 2.679100
							CHANNELS 3 Xrotation Yrotation Zrotation
							End Site
							{
								OFFSET 0.000000 10.009018 0.000000
							}
						}
					}
				}
			}
			JOINT LBackpack_Strap
			{
				OFFSET 15.223200 -7.719803 -6.610900
				CHANNELS 3 Xrotation Yrotation Zrotation
				End Site
				{
					OFFSET 0.000000 16.040596 0.000000
				}
			}
			JOINT RBackpack_Strap
			{
				OFFSET -15.223000 -7.719803 -6.610900
				CHANNELS 3 Xrotation Yrotation Zrotation
				End Site
				{
					OFFSET 0.000000 16.040596 0.000000
				}
			}
		}
	}
	JOINT BoyFacialAnim_Joint
	{
		OFFSET 1.000000 -82.208099 -1.550900
		CHANNELS 3 Xrotation Yrotation Zrotation
		End Site
		{
			OFFSET 0.000000 30.012791 0.000000
		}
	}
}
MOTION
Frames: 4
Frame Time: 0.016667
10.355463 78.891472 -0.607624 4.156761 -46.515518 3.321071 -0.000000 0.000002 0.000000 -23.595732 15.431942 6.708526 35.774414 24.031162 3.409469 -10.081195 20.974644 -11.449759 0.000000 -0.000000 -0.000000 0.000000 -0.000000 0.000000 -0.000001 0.000000 -0.000000 -27.487297 -38.269799 -23.237357 34.472081 -12.709600 -2.426076 -12.718860 -6.784571 12.348939 0.000000 -0.000002 -0.000000 0.000000 -0.000002 -0.000000 0.000002 -0.000000 -0.000001 10.008444 -5.756104 2.234025 3.056895 -1.359254 -0.696756 -8.919070 -4.431369 -1.692197 -8.566929 -5.142922 -4.413992 10.444448 -20.693634 6.191012 -0.000000 0.000000 -0.000000 -0.000000 0.000000 -0.000000 -0.000000 0.000000 -0.000000 -0.955895 -3.915909 -2.538330 13.282560 6.823590 -62.263608 -0.021058 -42.236879 -0.010397 -13.882419 -0.489242 0.693295 10.625197 -8.591986 14.272383 -0.294829 14.668198 -7.135007 0.000002 0.000002 -0.000001 1.031660 -1.592162 -15.118837 -0.015783 -1.091864 -24.286213 -0.000004 -0.000003 -0.000002 1.615787 -0.182615 -33.849280 -0.338684 -1.382244 -28.184992 0.000002 -0.000000 0.000002 -0.356919 -2.845871 -41.642943 -0.398118 -1.519208 -29.911898 -0.000002 0.000002 0.000002 0.340437 -1.216962 -35.934093 -0.410233 -1.748669 -33.792515 -0.000000 0.000004 0.000002 0.000001 0.000001 0.000001 -0.771035 0.311203 0.884124 3.113843 10.823037 70.823850 0.587843 47.471017 -0.255425 14.368650 15.131239 2.773448 8.265278 7.734435 -18.880808 5.407353 -20.572673 9.835192 -0.000001 0.000001 0.000004 0.428019 3.999530 18.226218 -0.076240 1.217079 27.275401 0.000001 0.000002 0.000002 -5.761811 0.366110 35.692817 -0.334674 1.374776 28.018542 0.000001 0.000001 -0.000000 -11.821796 -3.411412 42.352470 -0.510551 1.699984 33.914338 -0.000001 -0.000001 0.000004 -5.981504 1.104416 36.964502 -0.585439 1.985527 39.176179 0.000000 0.000001 0.000000 -0.000002 -0.000004 0.000002 0.000001 0.000002 0.000000 0.000001 0.000002 0.000000 0.000001 0.000002 0.000000 0.000001 0.000002 0.000000 0.000001 0.000002 0.000000 0.000001 0.000003 -0.000000 0.000001 0.000002 0.000000 0.000001 0.000002 0.000000 0.000001 0.000003 -0.000000 0.000001 0.000001 -0.000000 0.000001 0.000001 -0.000000 -0.000000 0.000002 0.000000 
10.173482 78.891075 -0.796863 3.940281 -48.234069 3.445690 -0.000000 0.000000 0.000000 -23.021270 15.781316 6.869622 35.743954 25.024107 3.369638 -10.105241 21.360863 -11.999566 -0.000000 0.000000 -0.000000 -0.000000 0.000000 -0.000000 0.000001 0.000000 -0.000000 -27.741092 -37.998268 -23.556522 34.501256 -12.441453 -2.409249 -12.099667 -6.606081 12.164114 -0.000000 -0.000002 0.000000 -0.000000 -0.000002 0.000000 0.000001 0.000002 -0.000000 9.931834 -5.777734 2.167665 2.967048 -1.211545 -0.652809 -9.020271 -4.366685 -1.601919 -8.544197 -4.716527 -4.541431 10.608245 -19.712438 5.755018 -0.000000 -0.000000 -0.000000 -0.000000 -0.000000 -0.000000 -0.000000 -0.000000 -0.000000 -0.878239 -4.226527 -2.233010 13.531513 6.780614 -62.153028 -0.020251 -42.480621 -0.009955 -13.978585 -1.700590 0.681725 10.610728 -8.609809 14.293132 -0.357686 14.631838 -7.082078 -0.000003 -0.000001 0.000001 1.074725 -1.682903 -15.031766 -0.013506 -1.086867 -24.168001 -0.000000 -0.000001 -0.000004 1.556048 -0.222468 -33.860311 -0.339058 -1.382946 -28.200485 0.000001 0.000001 0.000002 -0.383729 -2.808698 -41.684245 -0.402812 -1.527373 -30.088756 -0.000002 0.000001 -0.000000 0.287485 -1.146006 -35.957196 -0.410982 -1.749769 -33.816714 0.000000 0.000000 -0.000000 -0.000001 0.000001 0.000001 -0.846759 0.820774 0.916898 2.989855 9.871421 70.799528 0.512257 47.191082 -0.227948 14.622725 15.064752 2.863408 8.265275 7.734432 -18.880808 5.407353 -20.572677 9.835190 -0.000004 -0.000002 0.000001 0.423786 3.988745 18.092830 -0.070891 1.206681 27.024436 -0.000000 -0.000001 0.000003 -5.693462 0.419502 35.471327 -0.331012 1.367878 27.864928 0.000000 0.000001 0.000000 -11.722664 -3.292703 42.202568 -0.507890 1.695992 33.824333 -0.000003 -0.000002 0.000002 -5.917763 1.153310 36.846548 -0.580071 1.978830 39.019214 -0.000000 -0.000001 0.000000 -0.000000 -0.000001 -0.000000 -0.000000 0.000001 0.000000 -0.000000 0.000001 0.000000 -0.000000 0.000001 0.000000 -0.000000 0.000001 0.000000 -0.000000 0.000001 0.000000 -0.000000 0.000001 0.000000 -0.000000 0.000001 0.000000 -0.000000 0.000001 0.000000 -0.000000 0.000001 0.000000 -0.000000 0.000001 -0.000000 -0.000000 0.000001 -0.000000 -0.000000 0.000000 0.000000 
9.980837 78.897469 -1.048056 3.766503 -49.796341 3.491354 -0.000000 -0.000000 0.000000 -23.031634 16.053709 7.291404 36.337139 26.207253 3.358955 -9.930769 21.223640 -12.230370 -0.000000 0.000000 -0.000000 -0.000000 0.000000 -0.000000 -0.000000 0.000001 -0.000002 -27.942796 -37.746907 -23.474167 34.813181 -11.740699 -2.375036 -12.495197 -5.994641 11.610194 0.000000 -0.000002 -0.000000 0.000000 -0.000002 -0.000000 -0.000000 0.000000 -0.000000 9.862566 -5.731521 2.111708 2.895062 -1.071962 -0.562724 -9.100046 -4.316068 -1.464394 -8.530109 -4.413677 -4.597617 10.720726 -18.797792 5.274397 0.000001 -0.000000 0.000000 0.000001 -0.000000 0.000000 0.000001 -0.000000 0.000000 -0.800621 -4.500675 -1.933183 13.652194 6.640060 -62.119628 -0.019438 -42.599815 -0.009517 -13.882676 -2.727299 0.797313 10.581106 -8.637572 14.338662 -0.414981 14.605904 -7.028263 0.000005 -0.000000 -0.000001 1.114348 -1.838919 -14.860069 -0.009401 -1.077739 -23.952743 0.000001 -0.000001 -0.000002 1.447516 -0.296455 -33.824552 -0.338982 -1.382815 -28.197581 -0.000001 -0.000003 0.000001 -0.428770 -2.746211 -41.695382 -0.407288 -1.535086 -30.256932 0.000000 0.000000 -0.000000 0.203712 -1.028235 -35.966226 -0.410854 -1.749602 -33.813080 0.000001 0.000004 0.000002 -0.000002 0.000002 0.000001 -0.922053 1.266271 0.964827 2.893474 8.881782 70.701597 0.416260 46.895833 -0.192452 14.871101 14.853423 2.950813 8.265276 7.734435 -18.880810 5.407345 -20.572672 9.835189 -0.000002 0.000001 -0.000003 0.417023 3.978091 17.908604 -0.063697 1.192404 26.680712 0.000000 0.000001 0.000002 -5.592582 0.494499 35.169071 -0.326005 1.358356 27.654872 -0.000001 0.000000 0.000002 -11.569886 -3.123238 41.996081 -0.504108 1.690303 33.696212 -0.000003 0.000001 0.000002 -5.821088 1.217433 36.684871 -0.572465 1.969455 38.798230 -0.000001 -0.000003 0.000002 0.000001 0.000002 -0.000002 0.000000 -0.000000 -0.000000 0.000000 -0.000000 -0.000000 0.000000 -0.000000 -0.000000 0.000000 -0.000000 -0.000000 0.000000 -0.000000 0.000000 -0.000000 -0.000000 -0.000000 0.000000 -0.000000 -0.000000 0.000000 -0.000000 0.000000 -0.000000 -0.000000 -0.000000 -0.000000 0.000001 -0.000000 -0.000000 0.000001 -0.000000 -0.000000 -0.000000 0.000000 
9.778172 78.909500 -1.358792 3.610214 -51.190840 3.432862 -0.000000 0.000000 -0.000000 -23.688151 16.136856 8.214688 37.767347 27.076876 3.323954 -8.772318 20.755743 -13.219304 0.000000 0.000000 -0.000000 0.000000 0.000000 -0.000000 -0.000001 -0.000000 -0.000000 -27.875786 -37.433494 -23.026776 35.024541 -11.251640 -2.355017 -12.850480 -5.541751 11.083246 0.000000 -0.000000 -0.000000 0.000000 -0.000000 -0.000000 -0.000001 -0.000000 0.000000 9.800564 -5.613193 2.064647 2.839593 -0.944623 -0.432633 -9.159906 -4.281950 -1.286578 -8.508166 -4.235825 -4.578832 10.792600 -17.958405 4.764733 -0.000000 -0.000000 0.000000 -0.000000 -0.000000 0.000000 -0.000000 -0.000000 0.000000 -0.726153 -4.749507 -1.633529 13.608984 6.402165 -62.096644 -0.018537 -42.554080 -0.009087 -13.603445 -3.571043 1.026132 10.535366 -8.677433 14.409855 -0.467900 14.589206 -6.973096 -0.000002 -0.000002 -0.000000 1.151718 -2.065173 -14.597899 -0.003380 -1.063929 -23.629330 -0.000002 0.000001 -0.000003 1.286366 -0.405987 -33.745048 -0.338483 -1.381875 -28.176885 -0.000001 -0.000003 -0.000000 -0.495289 -2.655275 -41.684095 -0.411490 -1.542241 -30.413319 -0.000003 0.000001 0.000001 0.084676 -0.856795 -35.964522 -0.409948 -1.748217 -33.782478 0.000001 0.000005 0.000001 -0.000001 -0.000001 -0.000000 -0.995144 1.645282 1.031886 2.815502 7.867699 70.540083 0.304934 46.539478 -0.149990 15.123883 14.466166 3.017657 8.265274 7.734438 -18.880811 5.407353 -20.572677 9.835192 -0.000002 -0.000000 0.000003 0.408409 3.965417 17.675049 -0.054641 1.174349 26.246969 -0.000001 0.000001 0.000002 -5.466613 0.586059 34.785682 -0.319723 1.346280 27.387875 -0.000000 -0.000002 -0.000000 -11.377709 -2.913362 41.731042 -0.499267 1.683030 33.531441 -0.000001 -0.000004 -0.000000 -5.699283 1.294655 36.479210 -0.562723 1.957328 38.514183 0.000002 -0.000006 0.000001 0.000001 -0.000002 0.000002 0.000000 0.000001 -0.000000 0.000000 0.000001 -0.000000 0.000000 0.000001 -0.000000 0.000000 0.000001 -0.000000 0.000000 0.000001 -0.000000 -0.000000 0.000001 -0.000000 0.000000 0.000001 -0.000000 0.000000 0.000001 -0.000000 -0.000000 0.000001 -0.000000 0.000001 -0.000004 0.000001 0.000001 -0.000004 0.000001 -0.000000 0.000000 -0.000000 
